<?xml version="1.0" encoding="UTF-8"?>
<svg id="Capa_2" data-name="Capa 2" xmlns="http://www.w3.org/2000/svg" width="241.85" height="19.19" viewBox="0 0 241.85 19.19">
  <defs>
    <style>
      .cls-1 {
        fill: #0f1931;
      }
    </style>
  </defs>
  <g id="Capa_1-2" data-name="Capa 1">
    <g>
      <path class="cls-1" d="M12.94,2.81c1.5,1.63,2.27,3.93,2.27,6.84s-.77,5.2-2.27,6.86c-1.51,1.63-3.62,2.45-6.33,2.45H0V.33H6.61c2.7,0,4.85,.82,6.33,2.48Zm-1.25,12.53c1.15-1.38,1.73-3.27,1.73-5.69s-.59-4.34-1.76-5.69c-1.15-1.35-2.83-2.04-5.05-2.04H1.76v15.49H6.61c2.22,0,3.93-.69,5.08-2.07Z"/>
      <path class="cls-1" d="M30.51,2.81c1.5,1.63,2.27,3.93,2.27,6.84s-.77,5.2-2.27,6.86c-1.51,1.63-3.62,2.45-6.33,2.45h-6.61V.33h6.61c2.7,0,4.85,.82,6.33,2.48Zm-1.25,12.53c1.15-1.38,1.74-3.27,1.74-5.69s-.59-4.34-1.76-5.69c-1.15-1.35-2.83-2.04-5.05-2.04h-4.85v15.49h4.85c2.22,0,3.93-.69,5.08-2.07Z"/>
      <path class="cls-1" d="M39.06,17.99c-1.33-.79-2.3-1.91-2.96-3.34-.66-1.43-1-3.09-1-5.03,0-2.93,.77-5.28,2.27-7.02C38.91,.89,41.02,.03,43.73,.03c2.09,0,3.85,.54,5.28,1.61,1.4,1.07,2.4,2.58,2.93,4.49l-1.28,.33c-.13,.05-.43,.13-.43,.13,0,0-.13-.33-.18-.46-.48-1.4-1.28-2.53-2.35-3.32-1.07-.79-2.4-1.2-3.98-1.2-2.22,0-3.9,.71-5.05,2.17-1.17,1.43-1.76,3.39-1.76,5.84,0,.74,.08,1.43,.18,2.12,.13,.69,.33,1.4,.66,2.14,.31,.74,.71,1.38,1.2,1.91,.48,.54,1.15,.97,1.96,1.3,.82,.36,1.76,.54,2.81,.54,1.68,0,3.09-.43,4.18-1.33,1.1-.87,1.86-2.07,2.25-3.6,.05-.15,.13-.54,.13-.54,0,0,.38,.1,.54,.15l1.25,.31c-.48,2.07-1.45,3.67-2.91,4.82-1.45,1.17-3.27,1.74-5.43,1.74-1.81,0-3.37-.38-4.67-1.2Z"/>
      <path class="cls-1" d="M72.58,2.81c1.5,1.63,2.27,3.93,2.27,6.84s-.77,5.2-2.27,6.86c-1.51,1.63-3.62,2.45-6.33,2.45h-6.61V.33h6.61c2.7,0,4.85,.82,6.33,2.48Zm-1.25,12.53c1.15-1.38,1.73-3.27,1.73-5.69s-.59-4.34-1.76-5.69c-1.15-1.35-2.83-2.04-5.05-2.04h-4.85v15.49h4.85c2.22,0,3.93-.69,5.08-2.07Z"/>
      <path class="cls-1" d="M78.19,1.91v6.68h9.39v1.58h-9.39v7.22h9.59v1.56h-11.35V.33h11.35V1.91h-9.59Z"/>
      <path class="cls-1" d="M103.86,.36l-6.63,18.6h-1.91L88.78,.36h1.96l5.56,16L101.97,.36h1.89Z"/>
      <path class="cls-1" d="M107.35,1.91v6.68h9.39v1.58h-9.39v7.22h9.59v1.56h-11.35V.33h11.35V1.91h-9.59Z"/>
      <path class="cls-1" d="M130.44,17.4v1.56h-11.35V.36h1.79V17.4h9.57Z"/>
      <path class="cls-1" d="M131.41,16.58c-1.5-1.74-2.27-4.06-2.27-6.99s.77-5.28,2.27-7.02c1.53-1.73,3.65-2.58,6.38-2.58s4.82,.84,6.35,2.58c1.51,1.71,2.25,4.06,2.25,7.02s-.74,5.31-2.27,7.02c-1.5,1.71-3.62,2.58-6.33,2.58s-4.87-.87-6.38-2.6Zm11.46-1.12c1.17-1.46,1.74-3.39,1.74-5.87s-.56-4.44-1.74-5.87-2.86-2.14-5.08-2.14-3.9,.71-5.08,2.17c-1.17,1.43-1.76,3.39-1.76,5.84,0,2.32,.59,4.54,2.04,6.17,1.2,1.33,3.11,1.86,4.8,1.86,2.22,0,3.9-.74,5.08-2.17Z"/>
      <path class="cls-1" d="M160.01,1.71c1.07,.89,1.58,2.17,1.58,3.83s-.51,2.93-1.58,3.83c-1.07,.92-2.55,1.35-4.52,1.35h-4.75v8.24h-1.79V.36h6.53c1.96,0,3.44,.43,4.52,1.35Zm-1.33,6.48c.74-.61,1.12-1.51,1.12-2.65s-.38-2.04-1.12-2.65c-.77-.64-1.84-.94-3.21-.94h-4.72v7.19h4.72c1.38,0,2.45-.31,3.21-.94Z"/>
      <path class="cls-1" d="M180.67,18.96h-1.79V3.85l-6,15.1h-1.86l-5.97-15.05v15.05h-1.79V.36h2.35l6.35,16.33L178.45,.36h2.22V18.96Z"/>
      <path class="cls-1" d="M185.24,1.91v6.68h9.39v1.58h-9.39v7.22h9.59v1.56h-11.35V.33h11.35V1.91h-9.59Z"/>
      <path class="cls-1" d="M211.11,.36V18.96h-1.99l-10.36-15.87v15.87h-1.79V.36h1.96l10.38,15.89V.36h1.79Z"/>
      <path class="cls-1" d="M226.39,1.94h-5.71V18.96h-1.79V1.94h-5.74V.36h13.24V1.94Z"/>
      <path class="cls-1" d="M230.83,18.55c-1.1-.41-2.12-1.04-3.01-1.91l1.17-1.25,.36,.31c1.5,1.28,3.32,1.94,5.41,1.94,1.66,0,2.96-.38,3.9-1.1,.92-.71,1.4-1.66,1.4-2.78,0-.87-.36-1.61-1.02-2.27-.69-.66-1.68-1.15-3.04-1.43l-2.81-.61c-3.32-.71-4.97-2.27-4.97-4.67,0-1.58,.56-2.75,1.71-3.57,1.15-.79,2.7-1.2,4.69-1.2,.77,0,1.5,.08,2.19,.25,.71,.15,1.33,.38,1.86,.66,.51,.28,.97,.54,1.35,.82,.36,.26,.69,.54,.99,.82l-1.15,1.22s-.28-.23-.38-.31c-1.66-1.25-3.29-1.89-4.87-1.89s-2.68,.25-3.47,.82c-.77,.54-1.17,1.33-1.17,2.37,0,.69,.31,1.3,.87,1.84,.59,.54,1.4,.92,2.48,1.15l2.91,.69c1.91,.43,3.32,1.07,4.26,1.94,.92,.87,1.35,1.99,1.35,3.34,0,1.81-.61,3.16-1.86,4.08-1.28,.92-3.01,1.38-5.23,1.38-1.51,0-2.83-.21-3.93-.64Z"/>
    </g>
  </g>
</svg>