<?xml version="1.0" encoding="UTF-8"?>
<svg id="Capa_2" data-name="Capa 2" xmlns="http://www.w3.org/2000/svg" viewBox="0 0 510.24 510.24">
  <g id="Layer_2" data-name="Layer 2">
    <g>
      <path d="M245.13,326.54h16.58c7.68,0,14.92-.82,21.68-2.36-5.83-2.85-11.21-6.38-16.03-10.49-6.44,5.36-13.9,9.69-22.22,12.85Z" style="fill: #162d57;"/>
      <path d="M263.08,309.76c-13.85-13.79-22.16-32.9-22.16-54.64s8.32-40.82,22.19-54.61c-13.2-10.71-31.11-16.79-52.22-16.79h-6.77v142.83h6.77c21.09,0,38.99-6.08,52.19-16.78Z" style="fill: #162d57;"/>
      <g>
        <path d="M74.48,179.01c.18-1.55,.05-2.93-.38-4.17-.69-1.95-1.97-3.77-3.87-5.43-1.89-1.66-4.27-3.08-7.15-4.23-4.83-1.95-9.03-2.17-12.62-.7-3.6,1.49-6.35,4.6-8.24,9.34l-1.01,2.49,30.14,12.11,1.57-3.89c.86-2.15,1.38-3.98,1.56-5.52Z" style="fill: #162d57;"/>
        <path d="M341.52,454.65c.47-.37,.81-.78,.97-1.26,.17-.47,.23-.94,.18-1.43-.06-.48-.16-.93-.34-1.35-.17-.41-.42-.81-.73-1.19s-.69-.68-1.15-.89c-.45-.21-.97-.27-1.57-.18-.21,.02-.43,.08-.66,.16s-.43,.16-.62,.23l-4.63,1.95,2.74,6.55,4.64-1.95c.18-.07,.38-.17,.6-.28,.22-.11,.41-.24,.58-.37Z" style="fill: #162d57;"/>
        <path d="M356.78,67.4c2.02-.5,3.65-1.97,4.9-4.41,1.44-2.8,1.8-5.24,1.11-7.33-.69-2.08-2.46-3.85-5.3-5.3l-2.8-1.43-7.98,15.61,2.79,1.43c2.84,1.45,5.26,1.93,7.28,1.44Z" style="fill: #162d57;"/>
        <path d="M61.2,216.63c-1.1-1.75-2.76-3.24-4.96-4.45-2.21-1.22-4.84-2.06-7.91-2.56-5.12-.82-9.28-.13-12.46,2.11-3.18,2.23-5.18,5.87-6,10.89l-.43,2.66,32.05,5.21,.68-4.15c.36-2.28,.47-4.18,.3-5.72-.16-1.54-.59-2.86-1.27-3.99Z" style="fill: #162d57;"/>
        <path d="M130.82,425.65c-.24-.26-.54-.54-.9-.82s-.66-.51-.9-.68l-2.53-1.84-8.47,11.67,2.54,1.84c.24,.18,.54,.38,.92,.64,.38,.24,.73,.45,1.05,.59,.91,.44,1.83,.55,2.75,.36,.91-.2,1.79-.62,2.62-1.26,.82-.64,1.57-1.4,2.21-2.29,.67-.93,1.18-1.89,1.53-2.87,.35-.98,.47-1.94,.35-2.86-.11-.92-.5-1.75-1.18-2.47Z" style="fill: #162d57;"/>
        <path d="M255.12,0C114.22,0,0,114.22,0,255.12s114.22,255.12,255.12,255.12,255.12-114.22,255.12-255.12S396.02,0,255.12,0Zm217.9,178.64l7.29,26.02-2.75,.78-2.69-9.62-34.03,9.52-1.89-6.77,34.03-9.52-2.69-9.63,2.74-.78Zm-15.6-34.78l-14.79,29.43,23.6-11.73,1.52,3.04-34.19,17.02-1.51-3.04,17.05-34.01-27.23,13.55-1.52-3.04,34.18-17.03,2.89,5.81Zm-12.92-21.36l-2.25,1.75-10.14-13.06-11.04,8.55,9.42,12.14-2.28,1.77-9.42-12.14-12.35,9.57,10.14,13.07-2.25,1.75-14.48-18.66,30.18-23.4,14.47,18.66Zm-50.13-52.3l-8.48,26.95,24.7-13.43,5.74,4.78-24.45,29.35-5.31-4.43,19.66-23.58-30.47,16.39,10.18-33.31-19.66,23.58-2.53-2.11,24.46-29.32,6.16,5.12Zm-44.87-26.69l12.18,6.22c3.63,1.85,6.02,4.22,7.17,7.09,1.16,2.86,.94,5.86-.66,8.98-1.56,3.04-3.74,4.95-6.54,5.71-2.8,.75-5.88,.28-9.24-1.44l-6.77-3.46-7.21,14.12-6.31-3.22,17.38-34Zm-58.8,1.36c.73-2.73,1.89-5.16,3.45-7.27,1.57-2.1,3.48-3.79,5.76-5.08,2.28-1.29,4.68-2.1,7.22-2.43,2.53-.33,5.04-.18,7.55,.49,2,.54,3.87,1.37,5.6,2.51,1.72,1.13,3.26,2.51,4.59,4.15,2.01,2.46,3.31,5.22,3.92,8.27,.6,3.05,.47,6.19-.4,9.43-.73,2.73-1.87,5.13-3.45,7.22-1.57,2.1-3.49,3.79-5.78,5.1-2.3,1.31-4.71,2.14-7.22,2.45-2.51,.33-5.03,.16-7.57-.52-2.58-.69-4.87-1.8-6.88-3.33-2.02-1.53-3.69-3.44-5.01-5.73-1.31-2.25-2.11-4.69-2.41-7.3-.3-2.6-.09-5.26,.63-7.96Zm-27.94-21.35l7.07,.51-2.59,35.24,16.5,1.21-.21,2.85-23.56-1.72,2.79-38.09Zm155.75,231.59c0,90.09-73.3,163.39-163.39,163.39S91.73,345.21,91.73,255.12,165.03,91.73,255.12,91.73s163.39,73.3,163.39,163.39ZM245.2,23.42l.28,2.84-16.46,1.6,1.35,13.91,15.29-1.49,.28,2.87-15.29,1.49,1.51,15.55,16.46-1.6,.28,2.84-23.51,2.28-3.7-38,23.51-2.28Zm-60.33,10.92l16.84,22.29,2.24-27.66,3.55-1-3.96,41.77-25.87-33.36,7.2-2.03Zm-18.83,6.75l1.24,2.56-14.87,7.23,6.1,12.57,13.82-6.72,1.26,2.6-13.82,6.72,6.84,14.06,14.87-7.24,1.26,2.56-21.25,10.33-16.7-34.34,21.25-10.32Zm-55.3,33.25c5.92-4.51,11.61-6.64,17.08-6.38,5.48,.28,10.1,2.88,13.88,7.83,3.33,4.36,4.64,8.91,3.96,13.64-.69,4.73-3.26,8.79-7.71,12.2l-11.5,8.76-23.16-30.36,7.45-5.69Zm-45.51,47.74c1.8-2.65,3.89-4.58,6.3-5.79,2.41-1.21,5.12-1.71,8.18-1.51l.03,2.8c-2.58-.33-4.84-.1-6.78,.69-1.94,.79-3.55,2.13-4.83,4.01-2.15,3.17-2.55,6.58-1.18,10.2,1.35,3.62,4.29,6.97,8.81,10.03,4.37,2.97,8.36,4.39,11.96,4.25,3.61-.13,6.5-1.79,8.65-4.97,1.45-2.12,2.14-4.41,2.08-6.85-.06-2.44-.86-4.95-2.43-7.53l2.53-1.09c1.83,3.04,2.72,6.14,2.64,9.31-.07,3.17-1.09,6.2-3.06,9.12-2.94,4.33-6.94,6.88-11.99,7.64-5.05,.76-9.99-.51-14.83-3.78-4.72-3.2-7.64-7.33-8.8-12.4-1.14-5.07-.24-9.78,2.71-14.13Zm-25.78,50.99c2.77-6.9,6.59-11.65,11.42-14.22,4.84-2.57,10.14-2.69,15.92-.38,5.09,2.06,8.55,5.27,10.37,9.7,1.83,4.41,1.7,9.21-.38,14.42l-5.4,13.41-35.42-14.25,3.49-8.69Zm-12.45,49.43c1.2-7.34,3.88-12.8,8.03-16.37,4.16-3.57,9.31-4.85,15.46-3.84,5.4,.86,9.49,3.26,12.24,7.17,2.75,3.92,3.67,8.63,2.78,14.16l-2.33,14.26-37.69-6.13,1.5-9.25Zm37.46,141.93c-.52,1.06-1.31,1.89-2.38,2.46-1.09,.59-2.17,.9-3.22,.92-1.04,.03-2.03-.24-2.94-.82-.91-.58-1.7-1.48-2.36-2.69l-4.37-8.09,18.52-10.03,3.97,7.34c.68,1.26,.99,2.42,.91,3.49-.07,1.08-.38,2.02-.95,2.83-.57,.81-1.26,1.44-2.1,1.89-1.02,.56-2.02,.78-2.99,.69-.61-.07-1.17-.26-1.67-.56,.11,.93-.03,1.78-.41,2.57Zm11.06,27.27c-1.43,.14-2.78-.11-4.08-.73-1.3-.64-2.43-1.63-3.41-2.99-.98-1.36-1.56-2.76-1.75-4.19-.19-1.43,0-2.8,.6-4.1,.6-1.31,1.56-2.43,2.91-3.42l10.72-7.7,2.11,2.87-10.67,7.68c-.64,.46-1.13,.99-1.49,1.57-.35,.59-.57,1.18-.65,1.81-.08,.62-.05,1.24,.12,1.86,.16,.6,.43,1.18,.8,1.69,.38,.54,.84,.97,1.36,1.31,.54,.35,1.11,.57,1.73,.69,.62,.11,1.26,.11,1.92-.04,.66-.16,1.31-.46,1.94-.91l10.67-7.68,2.08,2.89-10.74,7.74c-1.35,.97-2.74,1.53-4.17,1.66Zm6.67,13.38l15.73-14,2.34,2.64-15.73,14-2.34-2.64Zm23.79,19.24l-2.25,2.42-9.39-8.75,14.35-15.42,2.57,2.4-12.09,13,6.81,6.34Zm29.34,7.23c-.4,1.56-1.12,3.07-2.17,4.51-1.04,1.44-2.25,2.6-3.62,3.47-1.36,.86-2.8,1.34-4.3,1.45-1.5,.11-2.99-.24-4.47-1.04-.42-.23-.85-.51-1.27-.8-.43-.31-.73-.51-.86-.62l-5.43-3.93,12.37-17.04,5.43,3.93c.15,.11,.42,.32,.84,.63,.42,.32,.81,.64,1.17,.98,1.22,1.14,2.02,2.45,2.38,3.91,.37,1.47,.35,2.98-.06,4.55Zm5.93,21.65l-3.05-1.77,10.53-18.23,3.06,1.77-10.54,18.23Zm27.82,13.57l-3.26-1.45-2.89-17.54-6.04,13.57-3.26-1.46,8.55-19.23,3.26,1.45,2.9,17.53,6.02-13.57,3.26,1.45-8.55,19.25Zm34.44-4.2l-3.61-.46c-.02-1.31-.38-2.46-1.04-3.42-.66-.97-1.66-1.65-3.01-2.05-1.35-.42-2.56-.45-3.64-.1-1.08,.33-2.01,1-2.77,1.97-.78,.97-1.39,2.2-1.81,3.68-.43,1.48-.58,2.82-.46,4.05,.13,1.22,.56,2.27,1.29,3.14,.72,.87,1.76,1.51,3.12,1.92,1.01,.32,1.97,.39,2.84,.24,.88-.16,1.67-.55,2.38-1.18,.72-.63,1.32-1.49,1.83-2.61l-3.56-1.04,.78-2.65,7.16,2.09c-.02,.15-.08,.38-.16,.67-.07,.29-.12,.47-.14,.53-.55,1.9-1.42,3.49-2.61,4.75-1.19,1.26-2.6,2.11-4.25,2.55-1.66,.43-3.45,.36-5.41-.2-1.31-.38-2.46-.96-3.48-1.76-1.02-.81-1.82-1.78-2.43-2.93-.6-1.15-.95-2.45-1.06-3.89-.11-1.45,.09-3.02,.58-4.7,.64-2.21,1.61-3.98,2.89-5.3,1.28-1.33,2.76-2.2,4.43-2.63,1.68-.42,3.42-.37,5.21,.16,2.49,.73,4.29,1.88,5.41,3.45,1.12,1.58,1.63,3.5,1.53,5.73Zm39.02,2.67l-10.03-.93-.48,5.17,8.28,.77-.31,3.29-8.28-.78-.55,5.92,10.03,.94-.31,3.3-13.54-1.26,1.95-20.96,13.55,1.26-.31,3.28Zm23.93,17.79l-5.17-7.51-4.76,7.79-4.34,.11,6.85-10.84-7.22-10.23,4.32-.11,4.99,7.28,4.55-7.53,4.33-.13-6.63,10.61,7.39,10.44-4.32,.12Zm29.91-14.59c-.24,1-.7,1.87-1.39,2.6-.69,.74-1.62,1.29-2.78,1.66-.27,.09-.55,.16-.88,.23-.32,.07-.57,.11-.77,.16l-5.12,.78,1.13,7.27-3.48,.54-3.22-20.81,8.6-1.33c.2-.03,.47-.07,.78-.1,.33-.04,.62-.05,.9-.05,1.23,0,2.28,.24,3.17,.74,.88,.49,1.58,1.18,2.11,2.06,.53,.88,.87,1.89,1.05,3.04,.18,1.13,.15,2.2-.1,3.2Zm14.48,8.06l-5.7-20.27,13.09-3.69,.9,3.18-9.7,2.73,1.4,4.99,8.01-2.25,.89,3.19-8.01,2.24,1.62,5.73,9.7-2.73,.89,3.19-13.09,3.68Zm36.89-12.74l-6.14-5.41-4.6,1.93,2.84,6.8-3.26,1.35-8.13-19.42,8.02-3.36c.19-.07,.42-.18,.73-.29,.3-.11,.59-.2,.86-.26,1.19-.29,2.28-.31,3.26-.04,.98,.26,1.82,.77,2.55,1.49,.72,.73,1.31,1.62,1.75,2.7,.67,1.58,.83,3.11,.51,4.58-.21,.95-.68,1.79-1.39,2.53l6.67,5.85-3.68,1.54Zm15.15-7.41l-10.05-18.52,3.1-1.68,10.04,18.52-3.09,1.68Zm15.13-8.72l-11.74-17.47,11.28-7.59,1.84,2.73-8.36,5.63,2.89,4.3,6.91-4.64,1.84,2.74-6.9,4.64,3.32,4.94,8.36-5.61,1.84,2.73-11.29,7.59Zm31.92-24.33l-17.11-4.78,9.74,11.2-2.68,2.34-13.84-15.89,2.7-2.33,17.11,4.77-9.75-11.18,2.69-2.34,13.83,15.87-2.69,2.35Zm21.54-24.56c-.15,2.02-1.02,3.93-2.61,5.77-1.39,1.59-2.92,2.64-4.6,3.17-1.68,.53-3.4,.55-5.17,.07-1.77-.48-3.48-1.43-5.12-2.86-1.64-1.42-2.82-2.99-3.53-4.67-.71-1.69-.92-3.41-.63-5.14,.29-1.74,1.13-3.4,2.51-4.99,1.59-1.83,3.38-2.96,5.35-3.38,1.97-.42,3.96-.21,5.94,.65l-1.6,3.32c-1.31-.6-2.57-.78-3.8-.55-1.23,.24-2.37,.94-3.39,2.13-.93,1.06-1.46,2.16-1.61,3.28-.13,1.13,.07,2.24,.63,3.36,.55,1.11,1.4,2.17,2.55,3.18,1.17,1.03,2.33,1.72,3.5,2.12,1.18,.4,2.32,.44,3.41,.15,1.1-.29,2.11-.98,3.04-2.04,1.03-1.19,1.57-2.41,1.63-3.66,.07-1.26-.29-2.49-1.05-3.7l3.08-2.03c1.11,1.84,1.6,3.77,1.45,5.79Zm11.04-12.13l-17.5-11.71,7.56-11.3,2.74,1.84-5.59,8.38,4.31,2.88,4.63-6.92,2.75,1.84-4.63,6.91,4.95,3.32,5.61-8.38,2.74,1.84-7.56,11.31Zm18.72-31.46c-.2,1.01-.55,2-1.04,2.95-.7,1.38-1.57,2.49-2.61,3.35-1.04,.85-2.18,1.41-3.44,1.66-1.26,.24-2.54,.15-3.86-.28l1.17-3.51c1.26,.29,2.41,.16,3.45-.4,1.05-.55,1.86-1.4,2.44-2.51,.34-.68,.56-1.36,.65-2.06,.09-.7,.03-1.33-.18-1.9-.2-.57-.6-1.01-1.18-1.31-.26-.12-.53-.2-.79-.24-.26-.02-.53,.02-.79,.08-.26,.08-.53,.23-.81,.41-.28,.2-.55,.44-.84,.73l-3.9,4.11c-.33,.35-.73,.72-1.18,1.1-.45,.37-.96,.68-1.54,.93-.58,.24-1.22,.36-1.92,.35-.7-.02-1.46-.24-2.28-.65-1.21-.62-2.06-1.44-2.58-2.46-.51-1.04-.7-2.18-.57-3.43,.12-1.24,.51-2.5,1.17-3.75,.66-1.29,1.47-2.32,2.41-3.11,.95-.78,2-1.31,3.17-1.57,1.16-.26,2.39-.24,3.69,.07l-1.14,3.67c-.73-.2-1.43-.22-2.09-.06-.67,.16-1.27,.46-1.8,.9-.53,.45-.97,.98-1.32,1.62-.33,.61-.53,1.25-.61,1.88-.07,.63,0,1.21,.19,1.71,.2,.51,.54,.9,1.03,1.15,.46,.24,.91,.29,1.34,.16,.43-.13,.83-.36,1.22-.69s.73-.67,1.07-1.04l2.65-2.88c.36-.41,.78-.83,1.29-1.3,.5-.47,1.08-.87,1.71-1.21,.64-.33,1.36-.52,2.14-.56,.78-.03,1.65,.2,2.59,.68,.97,.5,1.72,1.13,2.25,1.92,.52,.77,.86,1.62,.99,2.55,.14,.94,.1,1.92-.11,2.91Zm17.87-114.44l-1.94-2.32c1.71-.82,2.98-1.9,3.79-3.25,.82-1.35,1.14-2.9,.95-4.62-.2-1.84-.95-3.28-2.26-4.33-1.31-1.04-2.92-1.47-4.83-1.25-1.52,.16-2.75,.78-3.7,1.85-.96,1.09-1.86,3.01-2.71,5.79-1.35,4.37-2.77,7.32-4.28,8.83-1.51,1.52-3.54,2.42-6.12,2.69-3.41,.37-6.35-.51-8.81-2.64-2.46-2.11-3.9-4.98-4.28-8.59-.29-2.61-.03-4.92,.77-6.92,.8-2,2.18-3.81,4.12-5.44l2.29,2.6c-1.49,1-2.62,2.2-3.37,3.6-.75,1.39-1.04,2.83-.88,4.33,.22,2.02,1.03,3.6,2.45,4.73,1.41,1.13,3.13,1.58,5.13,1.36,3.2-.34,5.66-3.47,7.37-9.38l.02-.09c.92-3.19,2.1-5.5,3.53-6.94,1.43-1.45,3.35-2.3,5.76-2.56,3.29-.36,6.11,.45,8.45,2.42,2.35,1.96,3.71,4.69,4.09,8.17,.29,2.62-.06,4.97-1.02,7.05s-2.47,3.72-4.53,4.9Z" style="fill: #162d57;"/>
        <path d="M65.16,358.55c.36,.25,.77,.4,1.21,.42,.46,.02,.92-.1,1.4-.36,.64-.35,1.08-.84,1.27-1.49,.21-.64,.11-1.34-.29-2.07l-2.26-4.17-4.5,2.44,2.26,4.17c.24,.45,.54,.79,.9,1.05Z" style="fill: #162d57;"/>
        <path d="M305,66.82c3.37,.91,6.54,.08,9.54-2.46,3-2.53,5.17-6.32,6.51-11.38,1.35-5.03,1.36-9.4,.05-13.11-1.32-3.7-3.67-6.01-7.06-6.91-3.37-.9-6.54-.07-9.54,2.48-3,2.55-5.17,6.35-6.52,11.38-1.34,5.02-1.35,9.38-.02,13.08,1.33,3.71,3.67,6.01,7.04,6.91Z" style="fill: #162d57;"/>
        <path d="M133.64,101.3c1.83-1.4,3.22-2.71,4.15-3.94,.94-1.23,1.54-2.49,1.81-3.77,.41-2.04,.23-4.25-.55-6.65-.77-2.39-2.1-4.82-3.97-7.29-3.16-4.13-6.65-6.48-10.5-7.04-3.84-.56-7.79,.7-11.85,3.79l-2.13,1.62,19.69,25.82,3.35-2.55Z" style="fill: #162d57;"/>
        <path d="M59.1,354.88l-5.3,2.89,2.46,4.55c.29,.55,.67,.96,1.12,1.28,.45,.31,.94,.47,1.47,.51,.54,.03,1.08-.11,1.62-.4,.49-.28,.88-.62,1.16-1.04,.29-.43,.43-.91,.44-1.45,.02-.54-.14-1.1-.45-1.67l-2.52-4.66Z" style="fill: #162d57;"/>
        <path d="M64.03,361.22c.26,.26,.54,.46,.83,.64-.04-.32-.1-.65-.2-.99l-.64,.35Z" style="fill: #162d57;"/>
        <path d="M292.53,464.44c-.21-.44-.51-.82-.9-1.14-.39-.31-.88-.5-1.49-.55-.21-.04-.44-.04-.69-.02-.24,.02-.46,.06-.65,.07l-4.97,.78,1.09,7.03,4.97-.78c.19-.02,.41-.07,.64-.12,.24-.06,.46-.12,.64-.22,.55-.24,.97-.56,1.25-.98,.28-.42,.45-.86,.51-1.35,.07-.48,.07-.95,0-1.39-.07-.44-.21-.88-.42-1.33Z" style="fill: #162d57;"/>
        <path d="M343.32,457.48c.55-.34,1.02-.72,1.42-1.13l-1.15-1.01-2.99,2.11,1,.88,.39-.17,1.34-.69Z" style="fill: #162d57;"/>
      </g>
      <path d="M283.44,186.08c-6.78-1.55-14.04-2.37-21.73-2.37h-16.58c8.33,3.16,15.81,7.5,22.25,12.87,4.83-4.11,10.22-7.64,16.06-10.5Z" style="fill: #162d57;"/>
      <path d="M267.36,204.28c-12.85,12.66-20.46,30.35-20.46,50.84s7.6,38.21,20.43,50.87c12.89-12.47,20.28-29.98,20.28-50.87s-7.38-38.37-20.25-50.84Z" style="fill: #162d57;"/>
      <rect x="153.29" y="183.71" width="44.83" height="142.83" style="fill: #162d57;"/>
      <path d="M255.12,97.72c-86.79,0-157.4,70.61-157.4,157.4s70.61,157.4,157.4,157.4,157.4-70.61,157.4-157.4S341.91,97.72,255.12,97.72Zm121.23,102.29l-4.42,4.04c-11.97-13.11-30.18-20.34-51.3-20.34-6.8,0-13.31,.77-19.44,2.22,26.62,12.26,43.23,37.37,43.23,69.2s-16.63,56.98-43.27,69.23c6.08,1.43,12.53,2.19,19.27,2.19,21.13,0,39.42-7.3,51.51-20.55l4.42,4.04c-13.23,14.52-33.09,22.51-55.93,22.51-10.04,0-19.53-1.64-28.23-4.67-9.27,3.03-19.5,4.67-30.48,4.67h-114.4V177.72h114.4c11.01,0,21.25,1.64,30.54,4.68,8.74-3.04,18.29-4.69,28.39-4.69,22.81,0,42.61,7.92,55.72,22.3Z" style="fill: #162d57;"/>
      <path d="M293.61,255.12c0,22.2-8.09,41.13-22,54.71,6.01,4.99,12.95,8.99,20.63,11.83,28.51-9.9,46.2-34.19,46.2-66.54s-17.67-56.6-46.15-66.51c-7.69,2.84-14.64,6.84-20.66,11.83,13.89,13.58,21.98,32.5,21.98,54.68Z" style="fill: #162d57;"/>
    </g>
  </g>
</svg>