<?xml version="1.0" encoding="UTF-8"?>
<svg id="Capa_2" data-name="Capa 2" xmlns="http://www.w3.org/2000/svg" viewBox="0 0 57.01 57.01">
  <g id="Capa_1-2" data-name="Capa 1">
    <g>
      <path d="M28.51,57.01C12.79,57.01,0,44.22,0,28.51S12.79,0,28.51,0s28.51,12.79,28.51,28.51-12.79,28.51-28.51,28.51Zm0-54.51C14.17,2.51,2.51,14.17,2.51,28.51s11.66,26,26,26,26-11.66,26-26S42.84,2.51,28.51,2.51Z" style="fill: #0f1931;"/>
      <path d="M39.66,41.73c-7.74,0-13.58-5.69-13.58-13.22s5.85-13.22,13.62-13.22c3.9,0,7.28,1.35,9.52,3.81l-.76,.69c-2.04-2.24-5.16-3.48-8.76-3.48-7.3,0-12.6,5.13-12.6,12.2s5.28,12.2,12.56,12.2c3.61,0,6.74-1.25,8.8-3.51l.76,.69c-2.26,2.48-5.65,3.85-9.56,3.85Z" style="fill: #0f1931;"/>
      <path d="M39.54,40.92c-7.27,0-12.75-5.34-12.75-12.41s5.49-12.41,12.78-12.41c3.66,0,6.83,1.27,8.93,3.58l-.71,.65c-1.92-2.1-4.84-3.26-8.22-3.26-6.85,0-11.82,4.82-11.82,11.45s4.96,11.45,11.79,11.45c3.39,0,6.32-1.17,8.26-3.3l.71,.65c-2.12,2.33-5.31,3.61-8.97,3.61Z" style="fill: #0f1931;"/>
      <path d="M20.95,41.73H10.09V15.28h10.86c8.32,0,14.13,5.44,14.13,13.22s-5.81,13.22-14.13,13.22Zm-9.19-1.72h9.28c7.4,0,12.36-4.62,12.36-11.51s-4.97-11.51-12.36-11.51H11.76v23.01Z" style="fill: #0f1931;"/>
      <path d="M28.95,41.73h-10.86V15.28h10.86c8.32,0,14.13,5.44,14.13,13.22s-5.81,13.22-14.13,13.22Zm-9.19-1.72h9.28c7.4,0,12.36-4.62,12.36-11.51s-4.97-11.51-12.36-11.51h-9.28v23.01Z" style="fill: #0f1931;"/>
    </g>
  </g>
</svg>